HIERARCHY
ROOT Hips
{
	OFFSET 0.000000 0.000000 0.000000 
	CHANNELS 6 Xposition Yposition Zposition Yrotation Zrotation Xrotation 
	JOINT Lumbar
	{
		OFFSET 0.000000 0.000000 0.000000 
		CHANNELS 3 Zrotation Xrotation Yrotation
		JOINT Neck
		{
			OFFSET 0.000000 0.445665 0.000000 
			CHANNELS 3 Zrotation Xrotation Yrotation
			End Site
			{
				OFFSET 0.000000 0.227535 0.000000 
			}
		}
		JOINT RightShoulder
		{
			OFFSET 0.019635 0.377685 0.194865 
			CHANNELS 3 Zrotation Xrotation Yrotation
			JOINT RightElbow
			{
				OFFSET 0.000000 -0.243375 0.000000 
				CHANNELS 2 Zrotation Yrotation
				JOINT RightWrist
				{
					OFFSET 0.000000 -0.264825 0.000000 
					CHANNELS 2 Zrotation Xrotation
					End Site
					{
						OFFSET 0.006600 -0.176220 0.000990 
					}
				}
			}
		}
		JOINT LeftShoulder
		{
			OFFSET 0.019635 0.377685 -0.194865 
			CHANNELS 3 Zrotation Xrotation Yrotation
			JOINT LeftElbow
			{
				OFFSET 0.000000 -0.243375 0.000000 
				CHANNELS 2 Zrotation Yrotation
				JOINT LeftWrist
				{
					OFFSET 0.000000 -0.264825 0.000000 
					CHANNELS 2 Zrotation Xrotation
					End Site
					{
						OFFSET 0.006600 -0.176220 -0.000990 
					}
				}
			}
		}
	}
	JOINT RightHip
	{
		OFFSET 0.052140 -0.069960 0.075570 
		CHANNELS 3 Zrotation Xrotation Yrotation
		JOINT RightKnee
		{
			OFFSET 0.000000 -0.402270 0.000000 
			CHANNELS 1 Zrotation
			JOINT RightAnkle
			{
				OFFSET 0.000000 -0.404085 0.000000 
				CHANNELS 3 Zrotation Xrotation Yrotation
				End Site
				{
					OFFSET 0.204105 -0.089430 0.008415 
				}
			}
		}
	}
	JOINT LeftHip
	{
		OFFSET 0.052140 -0.069960 -0.075570 
		CHANNELS 3 Zrotation Xrotation Yrotation
		JOINT LeftKnee
		{
			OFFSET 0.000000 -0.402270 0.000000 
			CHANNELS 1 Zrotation
			JOINT LeftAnkle
			{
				OFFSET 0.000000 -0.404085 0.000000 
				CHANNELS 3 Zrotation Xrotation Yrotation
				End Site
				{
					OFFSET 0.204105 -0.089430 -0.008415 
				}
			}
		}
	}
}
MOTION
Frames: 34
Frame Time: 0.02
1.27085 0.95254 0.85471 1121.663 0 -8.0545 1.27264 6.13571 1.9694 -9.84245 7.37695 1.92836 1.2405 -17.26959 19.08903 29.17804 78.93934 4.83616 -2.56897 6.84666 0.96112 -25.25727 22.17894 -102.28961 -21.40345 6.84463 -10.19277 7.75845 2.53933 -16.58109 8.41691 -6.37409 -9.58886 17.85233 3.3734 15.98056 -13.3675 6.3442 5.99366 12.79547
1.2805 0.95255 0.83885 1121.60803 0 -7.80772 2.06638 5.45983 0.5319 -11.43761 8.46647 3.00215 2.28498 -18.6974 18.323 30.10122 80.98364 5.41312 -1.77975 7.98062 -0.56003 -23.56468 21.77009 -100.71699 -20.06646 6.98171 -9.91994 7.02955 2.24982 -18.84746 7.7949 -5.79613 -8.64997 17.62958 2.98521 15.50019 -14.67987 6.07642 5.87183 12.94792
1.29007 0.95316 0.82202 1121.64288 0 -7.55767 2.96389 4.78344 -1.07926 -13.39312 9.49013 4.39393 3.61151 -20.11968 17.45086 31.01915 83.56186 6.02835 -1.05047 9.42722 -2.05559 -21.86211 21.24461 -99.56476 -18.592 7.28974 -9.44891 6.20494 1.76017 -21.47775 6.83576 -4.97066 -7.3455 17.24024 2.4879 14.45566 -15.8125 5.8745 5.77653 13.23361
1.29961 0.95351 0.80564 1121.64731 0 -7.31096 3.80913 4.11124 -2.59074 -15.18417 10.52608 5.63523 4.80702 -21.54262 16.65509 31.95626 85.86156 6.61387 -0.29999 10.73863 -3.54609 -20.22213 20.78241 -98.18422 -17.19353 7.5004 -9.0215 5.42328 1.37628 -23.99284 5.98696 -4.27342 -6.2073 16.89938 2.03513 13.69731 -16.98254 5.65761 5.6757 13.43742
1.30946 0.95383 0.78918 1121.60183 0 -7.05269 4.68319 3.41784 -4.19586 -16.99405 11.64092 6.90952 6.02394 -22.98347 15.73533 32.83366 88.32956 7.25134 0.48584 12.03592 -5.12046 -18.31927 20.27872 -96.88805 -15.71623 7.78475 -8.78737 4.6351 0.93216 -26.31114 5.30042 -3.50973 -5.0638 16.67529 1.60077 12.82084 -18.37003 5.37476 5.54541 13.72064
1.31862 0.95435 0.77269 1121.68765 0 -6.81948 5.51643 2.77053 -5.64437 -18.83791 12.57411 8.18345 7.25626 -24.3791 15.05243 33.82664 90.56031 7.78898 1.17729 13.42562 -6.50679 -16.96771 19.83311 -95.54886 -14.37944 7.96007 -8.10499 3.84426 0.56542 -29.11313 4.21823 -2.82631 -3.85152 16.1682 1.10398 12.04884 -19.25051 5.24467 5.48246 13.87364
1.32604 0.95533 0.75624 1122.06963 0 -6.6529 6.24405 2.24757 -6.62339 -20.76384 13.02096 9.42972 8.50249 -25.6838 15.02551 35.17982 92.09119 8.05125 1.65589 15.0608 -7.40563 -17.14961 19.57551 -93.92772 -13.45765 7.78983 -6.23044 3.03209 0.45711 -33.24041 1.93649 -2.41773 -2.47551 14.91419 0.45375 11.76 -18.77069 5.53707 5.61186 13.64112
1.33276 0.95649 0.73982 1122.58984 0 -6.51316 6.92016 1.77278 -7.43659 -22.69531 13.2865 10.65438 9.74526 -26.93536 15.24442 36.64077 93.34718 8.21047 2.03422 16.76371 -8.10949 -17.88731 19.38045 -92.26911 -12.68668 7.506 -3.91357 2.22884 0.43394 -37.82201 -0.69742 -2.10018 -1.05511 13.38208 -0.25311 11.58462 -17.7836 5.97851 5.80607 13.27333
1.33973 0.95753 0.72348 1123.07533 0 -6.3633 7.59821 1.27776 -8.3219 -24.57382 13.63538 11.85538 10.96348 -28.18982 15.36842 38.02551 94.67195 8.4102 2.43606 18.39152 -8.88476 -18.36794 19.15686 -90.6775 -11.85347 7.27694 -1.80014 1.44611 0.37421 -42.14819 -3.04412 -1.74515 0.30436 11.98083 -0.92951 11.32014 -17.02658 6.3412 5.96264 12.9647
1.34699 0.95874 0.70672 1123.44262 0 -6.20283 8.37141 0.77318 -9.22882 -26.68098 13.97932 13.21019 12.30559 -29.53698 15.42231 39.52611 96.2542 8.63633 2.92993 20.22062 -9.73326 -18.86829 18.92895 -88.8905 -10.98668 7.03943 0.33477 0.55394 0.29871 -46.71088 -5.93459 -1.36333 1.85092 10.55431 -1.63245 11.19551 -16.26414 6.75226 6.15488 12.67022
1.35347 0.95965 0.69085 1124.09112 0 -6.07298 8.93183 0.30307 -10.04689 -28.30476 14.28974 14.23369 13.38055 -30.67468 15.67622 40.80985 97.22581 8.78449 3.20796 21.63855 -10.38158 -19.45789 18.72731 -87.49365 -10.22976 6.79157 2.52202 -0.1041 0.27865 -50.86276 -7.77783 -1.06435 3.01068 9.11731 -2.28865 10.81263 -15.39685 7.0976 6.28761 12.31252
1.35804 0.95967 0.67743 1125.45475 0 -6.00289 8.92426 -0.11033 -10.67705 -28.62049 14.56623 14.35923 13.75495 -31.27948 16.47282 41.47809 96.59441 8.72499 2.92463 21.93445 -10.53852 -20.17522 18.57563 -87.20803 -9.72238 6.5318 4.78934 -0.14147 0.39393 -53.94512 -6.5905 -0.954 3.11371 7.71341 -2.8311 9.70145 -14.34576 7.22093 6.24241 11.81215
1.36185 0.9594 0.66492 1127.10198 0 -5.96585 8.70211 -0.48593 -11.21916 -28.44166 14.81333 14.14799 13.85168 -31.66969 17.45352 41.92257 95.35355 8.59331 2.42653 21.80636 -10.49852 -20.96011 18.45017 -87.31017 -9.32456 6.26668 7.08388 0.06099 0.56267 -56.56096 -4.34709 -0.92834 2.81949 6.31063 -3.31848 8.32672 -13.2112 7.27361 6.13449 11.25222
1.36598 0.95927 0.652 1128.63616 0 -5.92604 8.57354 -0.861 -11.78999 -28.47003 15.06426 14.08205 14.05122 -32.13625 18.31708 42.46312 94.37688 8.50648 2.01969 21.85201 -10.53952 -21.70281 18.31803 -87.21619 -8.88812 6.0106 9.33759 0.17014 0.7057 -59.27646 -2.61758 -0.87702 2.69129 4.91192 -3.81145 7.06752 -12.12737 7.3608 6.05375 10.71993
1.37017 0.95909 0.63907 1130.10563 0 -5.83661 8.46136 -1.30817 -12.40407 -28.5763 15.34719 14.0495 14.3525 -32.68849 19.3297 43.03107 93.43961 8.36669 1.63373 21.98296 -10.60862 -22.51324 18.16585 -87.20371 -8.40859 5.72321 11.73121 0.21493 0.8568 -62.49334 -0.74946 -0.77503 2.62796 3.48352 -4.38882 5.83075 -10.97052 7.44238 5.98109 10.18132
1.37407 0.95895 0.62637 1131.77887 0 -5.85658 8.26285 -1.59806 -12.90772 -28.39858 15.56118 13.86615 14.37222 -33.01432 20.07336 43.4875 92.28575 8.31954 1.15756 21.83119 -10.57621 -23.19158 18.0609 -87.11581 -8.04426 5.50068 13.8288 0.44861 1.00363 -64.53544 1.07568 -0.79693 2.33225 2.12157 -4.77618 4.48214 -9.95403 7.5178 5.8756 9.64253
1.37742 0.95902 0.61402 1133.91467 0 -6.18266 7.89484 -1.45226 -13.1408 -27.59203 15.57241 13.36062 13.71344 -32.74722 20.02024 43.6886 90.62562 8.56157 0.45984 21.03048 -10.3012 -23.48389 18.07924 -86.70952 -7.9591 5.46376 15.14474 1.16245 1.11736 -63.56213 2.61027 -1.14469 1.51341 0.93886 -4.6551 2.90043 -9.33642 7.58535 5.6962 9.12584
1.38049 0.95912 0.60187 1136.25025 0 -6.61504 7.44464 -1.15167 -13.26337 -26.51017 15.51933 12.71242 12.77524 -32.26339 19.69109 43.78468 88.78045 8.8963 -0.31614 19.95427 -9.93342 -23.63875 18.14405 -86.21732 -7.98759 5.49203 16.15159 2.05453 1.22591 -61.39987 4.05166 -1.61246 0.47198 -0.17461 -4.34397 1.21379 -8.86768 7.65006 5.48495 8.60982
1.38367 0.95918 0.58964 1138.51446 0 -6.99097 7.02144 -0.92917 -13.43004 -25.53187 15.51016 12.12234 11.94439 -31.89279 19.49232 43.93013 87.05908 9.17957 -1.03931 18.98539 -9.61644 -23.85718 18.18774 -85.77414 -7.97125 5.48738 17.26989 2.8541 1.342 -59.70341 5.47967 -2.02249 -0.48411 -1.3161 -4.11763 -0.43414 -8.3388 7.72047 5.28755 8.08938
1.38692 0.95932 0.5774 1140.70884 0 -7.40348 6.63397 -0.67274 -13.62288 -24.62773 15.44009 11.55049 11.18607 -31.45386 19.27702 44.06237 85.14917 9.50215 -1.84259 18.07714 -9.25749 -24.07478 18.23233 -85.30079 -7.9301 5.49571 18.5121 3.71197 1.43873 -58.30183 7.17603 -2.45097 -1.39469 -2.47333 -3.89569 -2.05798 -7.77314 7.76928 5.09228 7.58569
1.38997 0.95931 0.5652 1143.08966 0 -7.76333 6.15594 -0.4506 -13.73175 -23.50966 15.4792 10.90913 10.21477 -31.10683 19.031 44.19827 83.59532 9.76271 -2.49507 16.98278 -8.96464 -24.2591 18.28583 -84.86679 -7.96607 5.49343 19.4222 4.48593 1.57309 -56.01447 8.28208 -2.86597 -2.4384 -3.57999 -3.62063 -3.74761 -7.32288 7.8641 4.88378 7.04613
1.3926 0.95889 0.55315 1145.958 0 -7.96235 5.44467 -0.36162 -13.67445 -21.87651 15.85731 10.13118 8.72021 -31.07926 18.74137 44.38364 83.07869 9.85614 -2.70955 15.44443 -8.89206 -24.3964 18.35214 -84.54389 -8.18743 5.43856 19.49161 4.99748 1.81898 -51.53588 7.73851 -3.23476 -3.87332 -4.57434 -3.2418 -5.64174 -7.13786 8.0801 4.66378 6.42469
1.39505 0.9583 0.54111 1149.00124 0 -8.10249 4.64722 -0.31223 -13.53021 -20.03986 16.34181 9.28716 7.02472 -31.14794 18.43374 44.57311 82.92769 9.87918 -2.76987 13.73112 -8.88584 -24.50275 18.42614 -84.26499 -8.48179 5.37198 19.23727 5.41469 2.10156 -46.2189 6.60735 -3.5817 -5.41772 -5.51793 -2.81713 -7.58747 -7.06828 8.3441 4.42839 5.76446
1.39756 0.95776 0.52903 1151.94924 0 -8.26255 3.89196 -0.2449 -13.40024 -18.29169 16.7658 8.4603 5.42276 -31.16841 18.15135 44.75513 82.60741 9.91744 -2.90009 12.09686 -8.84235 -24.61509 18.4963 -83.97633 -8.7421 5.31584 19.13025 5.86556 2.36275 -41.30808 5.76685 -3.92472 -6.85915 -6.47828 -2.41597 -9.4772 -6.95645 8.59076 4.18938 5.11058
1.40014 0.95734 0.51712 1154.97236 0 -8.45549 3.11923 -0.17325 -13.3708 -16.54487 17.24633 7.6781 3.79449 -31.20999 17.78975 44.96421 82.29579 10.03031 -3.03 10.44981 -8.83191 -24.7555 18.56804 -83.6421 -9.01049 5.24114 19.01102 6.36219 2.64323 -36.23721 4.82136 -4.33005 -8.53434 -7.46401 -1.99644 -11.51068 -6.80336 8.81831 3.99511 4.50323
1.40253 0.95663 0.50483 1157.8761 0 -8.56424 2.36561 -0.12037 -13.11543 -14.75762 17.62582 6.79471 2.18579 -31.22082 17.58953 45.11018 82.05248 9.96906 -3.12773 8.7976 -8.76163 -24.83347 18.63961 -83.4138 -9.27745 5.20051 18.8452 6.73815 2.89292 -31.33133 3.95947 -4.59933 -9.74436 -8.38425 -1.60728 -13.25247 -6.7658 9.0972 3.70309 3.7911
1.40444 0.95525 0.4916 1160.42085 0 -8.45771 1.66944 -0.1238 -12.23438 -12.85196 17.78112 5.60065 0.60842 -31.23203 17.86509 45.15935 81.93047 9.45372 -3.13163 7.12537 -8.57927 -24.73366 18.69204 -83.47076 -9.52553 5.26461 18.62398 6.80871 3.04445 -26.96604 3.43884 -4.4932 -9.65389 -9.14908 -1.30874 -14.20188 -6.98415 9.5046 3.15737 2.78798
1.40614 0.95358 0.47795 1162.83536 0 -8.26794 0.99957 -0.14231 -11.13337 -10.92594 17.81654 4.3163 -0.92615 -31.19024 18.30008 45.13055 81.85779 8.76558 -3.1156 5.46574 -8.32206 -24.57526 18.74675 -83.63191 -9.76851 5.36148 18.36971 6.76 3.16535 -22.82661 3.02701 -4.25127 -9.08951 -9.84769 -1.04353 -14.8506 -7.32083 9.96177 2.51235 1.68315
1.4079 0.95201 0.46443 1165.30031 0 -8.11325 0.32806 -0.14618 -10.14931 -9.04617 17.85387 3.10561 -2.43345 -31.10185 18.64677 45.08687 81.75371 8.14702 -3.13679 3.83207 -8.05394 -24.45274 18.81144 -83.74422 -10.01129 5.43814 18.13602 6.76095 3.30194 -18.66551 2.59035 -4.07422 -8.73232 -10.56844 -0.76771 -15.61957 -7.62511 10.39786 1.9039 0.63186
1.40981 0.95057 0.45119 1167.81058 0 -7.96606 -0.39253 -0.18667 -9.09227 -6.99764 18.11585 1.75626 -4.15064 -31.31311 19.06021 45.25664 81.71529 7.55468 -3.03544 2.05322 -7.97725 -24.28963 18.83072 -83.86686 -10.26733 5.53756 17.86733 6.77492 3.42891 -14.12255 2.03818 -3.88307 -8.40872 -11.32094 -0.47349 -16.45966 -7.84214 10.83136 1.32814 -0.45288
1.41135 0.94878 0.43725 1170.19052 0 -7.7869 -1.00042 -0.15088 -8.13383 -5.30507 17.88128 0.67329 -5.411 -30.88895 19.37194 44.96208 81.52811 6.8791 -3.18447 0.58849 -7.48386 -24.19802 18.94401 -83.98896 -10.49358 5.59665 17.668 6.73839 3.57245 -10.45217 1.74886 -3.68938 -7.90735 -11.99228 -0.22299 -17.07955 -8.26888 11.27865 0.66451 -1.4901
1.41198 0.94604 0.42166 1172.26431 0 -7.51723 -1.32923 0.07265 -7.52401 -4.54559 16.29624 0.36519 -5.47841 -28.70408 19.37115 43.41783 81.08839 5.91495 -4.04738 -0.06544 -5.85508 -24.31411 19.32393 -84.11214 -10.63743 5.54386 17.66843 6.55945 3.72889 -9.03412 2.26159 -3.52127 -6.97574 -12.45291 -0.11249 -17.16318 -9.23709 11.77274 -0.24671 -2.38345
1.41222 0.94296 0.40534 1174.20653 0 -7.22293 -1.54018 0.37846 -7.0187 -4.15619 14.21856 0.32573 -5.07665 -25.88695 19.26118 41.40899 80.47023 4.89029 -5.15941 -0.39298 -3.81201 -24.50461 19.7963 -84.22629 -10.75093 5.44826 17.74043 6.34001 3.90795 -8.50859 3.0212 -3.35561 -5.89055 -12.83313 -0.03996 -17.03519 -10.41586 12.27279 -1.2364 -3.22282
1.41262 0.94006 0.38923 1176.19362 0 -6.95482 -1.78792 0.66441 -6.44935 -3.63458 12.36919 0.15197 -4.84934 -23.3684 19.19655 39.60087 79.81189 3.96234 -6.14792 -0.83369 -1.95749 -24.66449 20.22208 -84.32525 -10.87941 5.36701 17.78255 6.16098 4.10605 -7.64719 3.60034 -3.18924 -4.91237 -13.25451 0.06773 -17.00558 -11.50005 12.75882 -2.17218 -4.07885
